# xmcd
#
# Track frame offsets:
#	150
#	12243
#	24193
#	36835
#	46800
#	58532
#	71667
#	88041
#	96711
#	111729
#	124906
#	136200
#	151694
#	166412
#	189823
#	200939
#
# Disc length: 2830 seconds
#
# Revision: 0
# Processed by: cddbd v1.4PL0 Copyright (c) Steve Scherf et al.
# Submitted via: audiograbber 1.81.01
#
DISCID=dc0b0c10
DTITLE=B. B. King - B. B. King
DYEAR=1900
DGENRE=
TTITLE0=You Know I Go For You
TTITLE1=I'll Survive
TTITLE2=You're On Top
TTITLE3=Flying High
TTITLE4=Low Rider
TTITLE5=Jumpin' With B.B.
TTITLE6=The Other Night Blues
TTITLE7=New Way Of Driving
TTITLE8=B.B.'s Boogie
TTITLE9=Walkin' And Talkin'
TTITLE10=She's Dynamite
TTITLE11=It's  My Own Fault
TTITLE12=Mr. Pawnbroker
TTITLE13=You've Done Lost Your Good Thing
TTITLE14=Catfish Blues
TTITLE15=Shake It Up And Go
EXTD=old songs and sound-quality\n\n
EXTT0=
EXTT1=
EXTT2=
EXTT3=
EXTT4=
EXTT5=
EXTT6=
EXTT7=
EXTT8=
EXTT9=
EXTT10=
EXTT11=
EXTT12=
EXTT13=
EXTT14=
EXTT15=
PLAYORDER=
